# xmcd CD database file
#
# Track frame offsets:
#	150
#	29390
#	44839
#	64192
#	87553
#	109749
#	129540
#	148147
#	172696
#	195843
#	212882
#	230383
#	246122
#
# Disc length: 3574 seconds
#
# Revision: 0
# Processed by: cddbd v1.5.2PL0 Copyright (c) Steve Scherf et al.
# Submitted via: CDex 1.51
#
DISCID=b90df40d
DTITLE=Cotton Club - The Christmas Songbook
DYEAR=2006
DGENRE=Jazz
TTITLE0=Santa Baby
TTITLE1=White Christmas
TTITLE2=I´ll Be Home At Christmas
TTITLE3=Santa Claus Is Coming Home
TTITLE4=What Are You Doing New Year´s Eve
TTITLE5=Jingle Bells
TTITLE6=Santa Claus Came In Spring
TTITLE7=Nature Boy
TTITLE8=The Christmas Song
TTITLE9=Have Yourself A Merry Little Christmas
TTITLE10=Silver Bells
TTITLE11=Let It Snow
TTITLE12=Rudolph, The Rednosed Reindeer
EXTD=YEAR: 2006
EXTT0=
EXTT1=
EXTT2=
EXTT3=
EXTT4=
EXTT5=
EXTT6=
EXTT7=
EXTT8=
EXTT9=
EXTT10=
EXTT11=
EXTT12=
PLAYORDER=
